<svg width="32" height="33" viewBox="0 0 32 33" fill="none" xmlns="http://www.w3.org/2000/svg">
<g clip-path="url(#clip0_1379:203)">
<circle cx="16" cy="16.5532" r="16" fill="#FEFEFE"/>
<path d="M17.5888 19.3979C17.5888 20.3336 16.9052 21.129 15.9802 21.2675L7.02667 22.6151L1.8335 23.3323C2.51882 22.1446 3.71369 21.3403 5.07013 21.1503L8.11679 20.7242L17.5888 19.3979Z" fill="black"/>
<path d="M24.5074 15.8786L22.2526 16.1946L16.2285 17.0415L9.71443 17.9576L4.51416 18.6891L4.53369 18.6536C5.21901 17.4676 6.41211 16.6616 7.76855 16.4716L10.8188 16.0437L13.4322 15.6762C14.3182 15.5519 14.7975 14.5701 14.3501 13.7942C14.0927 13.3486 13.5902 13.1036 13.0807 13.1746L12.422 13.2669L7.22171 13.9984L7.24124 13.9629C7.92656 12.7769 9.11966 11.9708 10.4761 11.7809L12.9848 11.4275L13.5263 11.3512L22.4692 10.0942L24.5216 9.80657C27.5062 9.59707 29.8906 10.38 30.1445 11.7826C30.4321 13.3539 27.9429 15.1329 24.5074 15.8786Z" fill="#0087FF"/>
</g>
<defs>
<clipPath id="clip0_1379:203">
<rect width="32" height="32" fill="white" transform="translate(0 0.553223)"/>
</clipPath>
</defs>
</svg>
